{"title":"Tinashe ft. ASAP Rocky - Pretend (2014.RnB)","uid":11153698,"size":88120393,"categoryP":"video","categoryS":"music_videos","magnet":"?xt=urn:btih:8b121c8a97498c8bbfa325e70090f7ad77051bce&amp;dn=Tinashe+ft.+ASAP+Rocky+-+Pretend+%282014.RnB%29&amp;tr=udp%3A%2F%2Ftracker.openbittorrent.com%3A80&amp;tr=udp%3A%2F%2Fopen.demonii.com%3A1337&amp;tr=udp%3A%2F%2Ftracker.coppersurfer.tk%3A6969&amp;tr=udp%3A%2F%2Fexodus.desync.com%3A6969","seeders":9,"leechers":0,"uploader":"MeRaDil","files":-1,"time":1412380272,"description":"TINASHE ft.A$AP ROCKY - PRETEND\n\n\n\nMPEG4 MUSIC VID\n\n &lt;a href=&quot;\nhttp://gifyu.com/images/Tinashe.png&quot; rel=&quot;nofollow&quot; target=&quot;_NEW&quot;&gt;\nhttp://gifyu.com/images/Tinashe.png&lt;/a&gt;\n\n\nGeneral\nComplete name                            : Tinashe ft. A$AP Rocky - Pretend\nFormat                                   : MPEG-4\nFormat profile                           : Base Media\nCodec ID                                 : isom\nFile size                                : 84.0 MiB\nDuration                                 : 4mn 3s\nOverall bit rate                         : 2 897 Kbps\nMusicVid name                            : Pretend\nMusicVid name/More                       : Tinashe &amp; A$AP Rocky\nAlbum                                    : Aquarius\nPerformer                                : Tinashe ft. ASAP Rocky\nGenre                                    : RnB\nContentType                              : Music Video\nRecorded date                            : 2014\nCopyright                                : Tinashe\nCover                                    : Yes\nRating                                   : ***\nMake                                     : MeRaDil\nartist url                               : http://www.tinashenow.com\nlabl                                     : RCA\nrelease                                  : USA . september 29 . 2014\nPart_ID                                  : Pretend\n\nVideo\nID                                       : 1\nFormat                                   : AVC\nFormat/Info                              : Advanced Video Codec\nFormat profile                           : &lt;a class=&quot;__cf_email__&quot; href=&quot;/cdn-cgi/l/email-protection&quot; data-cfemail=&quot;064e6f616e464a322836&quot;&gt;[email&amp;#160;protected]&lt;/a&gt;&lt;script cf-hash='f9e31' type=&quot;text/javascript&quot;&gt;\n/* &lt;![CDATA[ */!function(){try{var t=&quot;currentScript&quot;in document?document.currentScript:function(){for(var t=document.getElementsByTagName(&quot;script&quot;),e=t.length;e--;)if(t[e].getAttribute(&quot;cf-hash&quot;))return t[e]}();if(t&amp;&amp;t.previousSibling){var e,r,n,i,c=t.previousSibling,a=c.getAttribute(&quot;data-cfemail&quot;);if(a){for(e=&quot;&quot;,r=parseInt(a.substr(0,2),16),n=2;a.length-n;n+=2)i=parseInt(a.substr(n,2),16)^r,e+=String.fromCharCode(i);e=document.createTextNode(e),c.parentNode.replaceChild(e,c)}}}catch(u){}}();/* ]]&gt; */&lt;/script&gt;\nFormat settings, CABAC                   : Yes\nFormat settings, ReFrames                : 2 frames\nCodec ID                                 : avc1\nCodec ID/Info                            : Advanced Video Coding\nDuration                                 : 4mn 3s\nBit rate                                 : 2 634 Kbps\nWidth                                    : 1 920 pixels\nHeight                                   : 1 080 pixels\nDisplay aspect ratio                     : 16:9\nFrame rate mode                          : Variable\nFrame rate                               : 23.976 fps\nMinimum frame rate                       : 23.974 fps\nMaximum frame rate                       : 23.981 fps\nColor space                              : YUV\nChroma subsampling                       : 4:2:0\nBit depth                                : 8 bits\nScan type                                : Progressive\nBits/(Pixel*Frame)                       : 0.053\nStream size                              : 76.4 MiB (91%)\n\nAudio\nID                                       : 2\nFormat                                   : AAC\nFormat/Info                              : Advanced Audio Codec\nFormat profile                           : LC\nCodec ID                                 : 40\nDuration                                 : 4mn 3s\nBit rate mode                            : Constant\nBit rate                                 : 256 Kbps\nChannel(s)                               : 2 channels\nChannel positions                        : Front: L R\nSampling rate                            : 44.1 KHz\nCompression mode                         : Lossy\nStream size                              : 7.43 MiB (9%)\n\nTinashe * Aquarius * ASAP Rocky * Promo\n &lt;a href=&quot;\nhttps://thepiratebay.se/user/MeRaDil&quot; rel=&quot;nofollow&quot; target=&quot;_NEW&quot;&gt;\nhttps://thepiratebay.se/user/MeRaDil&lt;/a&gt;\n\n:)","torrent":{"xt":"urn:btih:8b121c8a97498c8bbfa325e70090f7ad77051bce","amp;dn":"Tinashe+ft.+ASAP+Rocky+-+Pretend+%282014.RnB%29","amp;tr":["udp%3A%2F%2Ftracker.openbittorrent.com%3A80","udp%3A%2F%2Fopen.demonii.com%3A1337","udp%3A%2F%2Ftracker.coppersurfer.tk%3A6969","udp%3A%2F%2Fexodus.desync.com%3A6969"],"infoHash":"8b121c8a97498c8bbfa325e70090f7ad77051bce","infoHashBuffer":{"type":"Buffer","data":[139,18,28,138,151,73,140,139,191,163,37,231,0,144,247,173,119,5,27,206]},"announce":[],"urlList":[]}}